<mxfile host="app.diagrams.net" agent="Mozilla/5.0 (Windows NT 10.0; Win64; x64) AppleWebKit/537.36 (KHTML, like Gecko) Chrome/131.0.0.0 Safari/537.36" version="26.0.3">
  <diagram id="C5RBs43oDa-KdzZeNtuy" name="Page-1">
    <mxGraphModel dx="954" dy="566" grid="1" gridSize="10" guides="1" tooltips="1" connect="1" arrows="1" fold="1" page="1" pageScale="1" pageWidth="827" pageHeight="1169" math="0" shadow="0">
      <root>
        <mxCell id="WIyWlLk6GJQsqaUBKTNV-0" />
        <mxCell id="WIyWlLk6GJQsqaUBKTNV-1" parent="WIyWlLk6GJQsqaUBKTNV-0" />
        <mxCell id="EKKhRLwcHlI4ka6zHhf0-9" style="edgeStyle=orthogonalEdgeStyle;rounded=0;orthogonalLoop=1;jettySize=auto;html=1;entryX=0.5;entryY=0;entryDx=0;entryDy=0;" edge="1" parent="WIyWlLk6GJQsqaUBKTNV-1" source="EKKhRLwcHlI4ka6zHhf0-0" target="EKKhRLwcHlI4ka6zHhf0-8">
          <mxGeometry relative="1" as="geometry" />
        </mxCell>
        <mxCell id="EKKhRLwcHlI4ka6zHhf0-0" value="u" style="ellipse;whiteSpace=wrap;html=1;aspect=fixed;" vertex="1" parent="WIyWlLk6GJQsqaUBKTNV-1">
          <mxGeometry x="370" y="270" width="60" height="60" as="geometry" />
        </mxCell>
        <mxCell id="EKKhRLwcHlI4ka6zHhf0-3" style="edgeStyle=orthogonalEdgeStyle;rounded=0;orthogonalLoop=1;jettySize=auto;html=1;exitX=0.5;exitY=1;exitDx=0;exitDy=0;entryX=0;entryY=0.5;entryDx=0;entryDy=0;" edge="1" parent="WIyWlLk6GJQsqaUBKTNV-1" source="EKKhRLwcHlI4ka6zHhf0-1" target="EKKhRLwcHlI4ka6zHhf0-0">
          <mxGeometry relative="1" as="geometry" />
        </mxCell>
        <mxCell id="EKKhRLwcHlI4ka6zHhf0-1" value="Pessoa" style="rounded=0;whiteSpace=wrap;html=1;" vertex="1" parent="WIyWlLk6GJQsqaUBKTNV-1">
          <mxGeometry x="180" y="230" width="100" height="40" as="geometry" />
        </mxCell>
        <mxCell id="EKKhRLwcHlI4ka6zHhf0-4" value="Banco" style="rounded=0;whiteSpace=wrap;html=1;" vertex="1" parent="WIyWlLk6GJQsqaUBKTNV-1">
          <mxGeometry x="360" y="210" width="100" height="40" as="geometry" />
        </mxCell>
        <mxCell id="EKKhRLwcHlI4ka6zHhf0-7" style="edgeStyle=orthogonalEdgeStyle;rounded=0;orthogonalLoop=1;jettySize=auto;html=1;entryX=1;entryY=0.5;entryDx=0;entryDy=0;" edge="1" parent="WIyWlLk6GJQsqaUBKTNV-1" source="EKKhRLwcHlI4ka6zHhf0-5" target="EKKhRLwcHlI4ka6zHhf0-0">
          <mxGeometry relative="1" as="geometry" />
        </mxCell>
        <mxCell id="EKKhRLwcHlI4ka6zHhf0-5" value="Company" style="rounded=0;whiteSpace=wrap;html=1;" vertex="1" parent="WIyWlLk6GJQsqaUBKTNV-1">
          <mxGeometry x="570" y="270" width="100" height="40" as="geometry" />
        </mxCell>
        <mxCell id="EKKhRLwcHlI4ka6zHhf0-6" style="edgeStyle=orthogonalEdgeStyle;rounded=0;orthogonalLoop=1;jettySize=auto;html=1;entryX=0.617;entryY=0.017;entryDx=0;entryDy=0;entryPerimeter=0;" edge="1" parent="WIyWlLk6GJQsqaUBKTNV-1" source="EKKhRLwcHlI4ka6zHhf0-4" target="EKKhRLwcHlI4ka6zHhf0-0">
          <mxGeometry relative="1" as="geometry" />
        </mxCell>
        <mxCell id="EKKhRLwcHlI4ka6zHhf0-8" value="Owner" style="rounded=0;whiteSpace=wrap;html=1;" vertex="1" parent="WIyWlLk6GJQsqaUBKTNV-1">
          <mxGeometry x="350" y="380" width="110" height="40" as="geometry" />
        </mxCell>
        <mxCell id="EKKhRLwcHlI4ka6zHhf0-21" style="edgeStyle=orthogonalEdgeStyle;rounded=0;orthogonalLoop=1;jettySize=auto;html=1;entryX=0.25;entryY=0;entryDx=0;entryDy=0;" edge="1" parent="WIyWlLk6GJQsqaUBKTNV-1" source="EKKhRLwcHlI4ka6zHhf0-10" target="EKKhRLwcHlI4ka6zHhf0-1">
          <mxGeometry relative="1" as="geometry" />
        </mxCell>
        <mxCell id="EKKhRLwcHlI4ka6zHhf0-10" value="&lt;u&gt;CPF&lt;/u&gt;" style="ellipse;whiteSpace=wrap;html=1;" vertex="1" parent="WIyWlLk6GJQsqaUBKTNV-1">
          <mxGeometry x="10" y="120" width="100" height="50" as="geometry" />
        </mxCell>
        <mxCell id="EKKhRLwcHlI4ka6zHhf0-14" style="edgeStyle=orthogonalEdgeStyle;rounded=0;orthogonalLoop=1;jettySize=auto;html=1;entryX=1;entryY=0.5;entryDx=0;entryDy=0;" edge="1" parent="WIyWlLk6GJQsqaUBKTNV-1" source="EKKhRLwcHlI4ka6zHhf0-11" target="EKKhRLwcHlI4ka6zHhf0-1">
          <mxGeometry relative="1" as="geometry" />
        </mxCell>
        <mxCell id="EKKhRLwcHlI4ka6zHhf0-11" value="&lt;u&gt;Licença&lt;/u&gt;" style="ellipse;whiteSpace=wrap;html=1;" vertex="1" parent="WIyWlLk6GJQsqaUBKTNV-1">
          <mxGeometry x="230" y="80" width="110" height="50" as="geometry" />
        </mxCell>
        <mxCell id="EKKhRLwcHlI4ka6zHhf0-22" style="edgeStyle=orthogonalEdgeStyle;rounded=0;orthogonalLoop=1;jettySize=auto;html=1;entryX=0.5;entryY=0;entryDx=0;entryDy=0;" edge="1" parent="WIyWlLk6GJQsqaUBKTNV-1" source="EKKhRLwcHlI4ka6zHhf0-12" target="EKKhRLwcHlI4ka6zHhf0-1">
          <mxGeometry relative="1" as="geometry" />
        </mxCell>
        <mxCell id="EKKhRLwcHlI4ka6zHhf0-12" value="&lt;u&gt;Endereço&lt;/u&gt;" style="ellipse;whiteSpace=wrap;html=1;" vertex="1" parent="WIyWlLk6GJQsqaUBKTNV-1">
          <mxGeometry x="90" y="60" width="110" height="50" as="geometry" />
        </mxCell>
        <mxCell id="EKKhRLwcHlI4ka6zHhf0-17" style="edgeStyle=orthogonalEdgeStyle;rounded=0;orthogonalLoop=1;jettySize=auto;html=1;entryX=0;entryY=0.5;entryDx=0;entryDy=0;" edge="1" parent="WIyWlLk6GJQsqaUBKTNV-1" source="EKKhRLwcHlI4ka6zHhf0-13" target="EKKhRLwcHlI4ka6zHhf0-1">
          <mxGeometry relative="1" as="geometry">
            <mxPoint x="55" y="280" as="targetPoint" />
            <Array as="points">
              <mxPoint x="60" y="250" />
            </Array>
          </mxGeometry>
        </mxCell>
        <mxCell id="EKKhRLwcHlI4ka6zHhf0-13" value="&lt;u&gt;Nome&lt;/u&gt;" style="ellipse;whiteSpace=wrap;html=1;" vertex="1" parent="WIyWlLk6GJQsqaUBKTNV-1">
          <mxGeometry y="180" width="110" height="40" as="geometry" />
        </mxCell>
        <mxCell id="EKKhRLwcHlI4ka6zHhf0-23" style="edgeStyle=orthogonalEdgeStyle;rounded=0;orthogonalLoop=1;jettySize=auto;html=1;" edge="1" parent="WIyWlLk6GJQsqaUBKTNV-1" source="EKKhRLwcHlI4ka6zHhf0-18" target="EKKhRLwcHlI4ka6zHhf0-4">
          <mxGeometry relative="1" as="geometry" />
        </mxCell>
        <mxCell id="EKKhRLwcHlI4ka6zHhf0-18" value="&lt;u&gt;Bnome&lt;/u&gt;" style="ellipse;whiteSpace=wrap;html=1;" vertex="1" parent="WIyWlLk6GJQsqaUBKTNV-1">
          <mxGeometry x="370" y="80" width="110" height="50" as="geometry" />
        </mxCell>
        <mxCell id="EKKhRLwcHlI4ka6zHhf0-25" style="edgeStyle=orthogonalEdgeStyle;rounded=0;orthogonalLoop=1;jettySize=auto;html=1;entryX=1;entryY=0.5;entryDx=0;entryDy=0;" edge="1" parent="WIyWlLk6GJQsqaUBKTNV-1" source="EKKhRLwcHlI4ka6zHhf0-24" target="EKKhRLwcHlI4ka6zHhf0-4">
          <mxGeometry relative="1" as="geometry" />
        </mxCell>
        <mxCell id="EKKhRLwcHlI4ka6zHhf0-24" value="&lt;u&gt;Bendereço&lt;/u&gt;" style="ellipse;whiteSpace=wrap;html=1;" vertex="1" parent="WIyWlLk6GJQsqaUBKTNV-1">
          <mxGeometry x="450" y="130" width="110" height="50" as="geometry" />
        </mxCell>
        <mxCell id="EKKhRLwcHlI4ka6zHhf0-26" value="&lt;u&gt;Cnome&lt;/u&gt;" style="ellipse;whiteSpace=wrap;html=1;" vertex="1" parent="WIyWlLk6GJQsqaUBKTNV-1">
          <mxGeometry x="600" y="160" width="110" height="50" as="geometry" />
        </mxCell>
        <mxCell id="EKKhRLwcHlI4ka6zHhf0-29" style="edgeStyle=orthogonalEdgeStyle;rounded=0;orthogonalLoop=1;jettySize=auto;html=1;entryX=1;entryY=0.75;entryDx=0;entryDy=0;" edge="1" parent="WIyWlLk6GJQsqaUBKTNV-1" source="EKKhRLwcHlI4ka6zHhf0-27" target="EKKhRLwcHlI4ka6zHhf0-5">
          <mxGeometry relative="1" as="geometry" />
        </mxCell>
        <mxCell id="EKKhRLwcHlI4ka6zHhf0-27" value="&lt;u&gt;Cendereço&lt;/u&gt;" style="ellipse;whiteSpace=wrap;html=1;" vertex="1" parent="WIyWlLk6GJQsqaUBKTNV-1">
          <mxGeometry x="710" y="205" width="110" height="50" as="geometry" />
        </mxCell>
        <mxCell id="EKKhRLwcHlI4ka6zHhf0-28" style="edgeStyle=orthogonalEdgeStyle;rounded=0;orthogonalLoop=1;jettySize=auto;html=1;entryX=0.86;entryY=0.05;entryDx=0;entryDy=0;entryPerimeter=0;" edge="1" parent="WIyWlLk6GJQsqaUBKTNV-1" source="EKKhRLwcHlI4ka6zHhf0-26" target="EKKhRLwcHlI4ka6zHhf0-5">
          <mxGeometry relative="1" as="geometry" />
        </mxCell>
      </root>
    </mxGraphModel>
  </diagram>
</mxfile>
